<?xml version="1.0" encoding="UTF-8"?>
<svg version="1.1" xmlns="http://www.w3.org/2000/svg" width="913" height="273">
<path d="M0 0 C6.93 0 13.86 0 21 0 C21.33 7.59 21.66 15.18 22 23 C24.31 21.02 26.62 19.04 29 17 C36.50883817 13.11611819 44.66769175 12.72111306 52.8828125 14.69140625 C58.50323802 16.69630431 61.64739932 19.08285233 65 24 C65.33 21.03 65.66 18.06 66 15 C68.45862401 14.94616152 70.9160755 14.90640962 73.375 14.875 C74.42300781 14.84986328 74.42300781 14.84986328 75.4921875 14.82421875 C77.32897486 14.80655733 79.16601963 14.89696739 81 15 C81.66 15.66 82.32 16.32 83 17 C83.94875 16.505 84.8975 16.01 85.875 15.5 C91.20764562 13.24843852 96.69651249 12.98132876 102.2421875 14.69140625 C107.08764777 16.87643456 109.89635889 19.73249348 113 24 C113.72703125 23.29423828 113.72703125 23.29423828 114.46875 22.57421875 C122.14104015 15.44784155 128.2004757 13.3250116 138.73828125 13.58203125 C145.24038283 14.41523469 150.17860442 17.04850474 154.625 21.8125 C155.07875 22.534375 155.5325 23.25625 156 24 C156.33 20.7 156.66 17.4 157 14 C159.46008778 14.08679142 161.91643517 14.19360955 164.375 14.3125 C165.07367187 14.33505859 165.77234375 14.35761719 166.4921875 14.38085938 C168.5234375 14.48828125 168.5234375 14.48828125 172 15 C172.66 15.99 173.32 16.98 174 18 C174.598125 17.505 175.19625 17.01 175.8125 16.5 C180.59378756 14.24998233 184.74516736 14.81006629 190 15 C190 20.94 190 26.88 190 33 C187.72135417 33.22786458 185.44270833 33.45572917 183.1640625 33.68359375 C180.95727195 33.89090114 180.95727195 33.89090114 179 35 C178.97494385 35.57032959 178.9498877 36.14065918 178.92407227 36.72827148 C178.80843451 39.29826157 178.68556376 41.86785527 178.5625 44.4375 C178.52318359 45.33533203 178.48386719 46.23316406 178.44335938 47.15820312 C178.40146484 48.01220703 178.35957031 48.86621094 178.31640625 49.74609375 C178.27974854 50.53685303 178.24309082 51.3276123 178.20532227 52.14233398 C178 54 178 54 177 55 C175.5112814 55.08669432 174.018555 55.10703494 172.52734375 55.09765625 C171.62822266 55.09443359 170.72910156 55.09121094 169.80273438 55.08789062 C168.85720703 55.07951172 167.91167969 55.07113281 166.9375 55.0625 C165.5134082 55.05573242 165.5134082 55.05573242 164.06054688 55.04882812 C161.70700469 55.03700128 159.35349468 55.01906521 157 55 C156.67 52.03 156.34 49.06 156 46 C155.2575 47.11375 155.2575 47.11375 154.5 48.25 C149.31900779 53.94909143 143.37243308 55.61198432 135.8046875 56.03125 C126.81980608 55.9311399 120.76568059 53.67763106 114.30859375 47.33984375 C113.66083984 46.67662109 113.66083984 46.67662109 113 46 C111.9171875 47.3921875 111.9171875 47.3921875 110.8125 48.8125 C106.05628289 54.39874945 101.88503725 55.38047439 94.71875 55.984375 C92 56 92 56 87 55 C87 59.62 87 64.24 87 69 C80.07 69 73.14 69 66 69 C65.67 61.41 65.34 53.82 65 46 C63.68 47.65 62.36 49.3 61 51 C54.60924847 55.938308 46.27535816 56.53080229 38.4765625 55.74609375 C32.49508456 54.61308342 27.11451142 52.45556164 23.0625 47.75 C22.711875 47.1725 22.36125 46.595 22 46 C21.67 48.97 21.34 51.94 21 55 C17.68744674 55.02683436 14.37510817 55.0467578 11.0625 55.0625 C10.11697266 55.07087891 9.17144531 55.07925781 8.19726562 55.08789062 C6.84858398 55.09272461 6.84858398 55.09272461 5.47265625 55.09765625 C4.22367554 55.10551147 4.22367554 55.10551147 2.94946289 55.11352539 C1 55 1 55 0 54 C-0.36760731 51.67182036 -0.70241581 49.3381615 -1 47 C-1.44730469 47.40992188 -1.89460937 47.81984375 -2.35546875 48.2421875 C-2.96003906 48.78101563 -3.56460938 49.31984375 -4.1875 49.875 C-5.07501953 50.67550781 -5.07501953 50.67550781 -5.98046875 51.4921875 C-11.8421062 55.86857445 -19.39786752 56.45231567 -26.50390625 55.75390625 C-34.45670667 54.23332004 -39.04782178 50.38717913 -43.80078125 44 C-45.01726969 41.97119843 -45.481287 40.2881768 -46 38 C-46.42152344 39.14339844 -46.84304688 40.28679687 -47.27734375 41.46484375 C-47.83058521 42.95578259 -48.38397847 44.44666511 -48.9375 45.9375 C-49.21529297 46.69224609 -49.49308594 47.44699219 -49.77929688 48.22460938 C-51.88671875 53.88671875 -51.88671875 53.88671875 -53 55 C-54.63472882 55.08700342 -56.27314055 55.10701063 -57.91015625 55.09765625 C-58.89951172 55.09443359 -59.88886719 55.09121094 -60.90820312 55.08789062 C-61.94912109 55.07951172 -62.99003906 55.07113281 -64.0625 55.0625 C-65.10728516 55.05798828 -66.15207031 55.05347656 -67.22851562 55.04882812 C-69.81903454 55.03699927 -72.40952422 55.01906319 -75 55 C-77.31 49.06 -79.62 43.12 -82 37 C-82.495 37.99 -82.495 37.99 -83 39 C-91.58 39.33 -100.16 39.66 -109 40 C-108.67 40.33 -108.34 40.66 -108 41 C-106.0590735 40.87963247 -104.12164553 40.70190369 -102.1875 40.5 C-95.66623647 39.93011082 -89.48943364 40.23997624 -83 41 C-85.44559505 47.36918015 -88.33194674 51.34061247 -94.59765625 54.2109375 C-102.01748558 56.64801965 -110.70020492 56.98504631 -118 54 C-122.83905244 51.18146419 -126.57153462 48.16048893 -129 43 C-129.721875 43.7425 -130.44375 44.485 -131.1875 45.25 C-139.24842884 53.13179709 -145.94144453 55.14554938 -157.1484375 55.09765625 C-158.35161621 55.09515869 -159.55479492 55.09266113 -160.79443359 55.09008789 C-163.06181396 55.07643188 -163.06181396 55.07643188 -165.375 55.0625 C-170.20125 55.041875 -175.0275 55.02125 -180 55 C-180 37.84 -180 20.68 -180 3 C-172.636875 2.9071875 -172.636875 2.9071875 -165.125 2.8125 C-163.59762207 2.78518799 -162.07024414 2.75787598 -160.49658203 2.72973633 C-150.21634469 2.66730574 -141.0574568 3.45878208 -132.76171875 10.10546875 C-129.56145775 13.54699112 -127.77146405 17.69057303 -126 22 C-124.7315625 20.8553125 -124.7315625 20.8553125 -123.4375 19.6875 C-116.72818183 14.23327368 -111.10670366 13.41582111 -102.53515625 13.5625 C-97.34743902 14.20451583 -93.35406546 16.19092551 -89 19 C-89.495 17.02 -89.495 17.02 -90 15 C-82.74 15 -75.48 15 -68 15 C-65.95438646 20.11403386 -65.0059369 24.61105234 -64 30 C-62.68 25.05 -61.36 20.1 -60 15 C-53.07 15 -46.14 15 -39 15 C-39 16.65 -39 18.3 -39 20 C-38.29875 19.38125 -37.5975 18.7625 -36.875 18.125 C-30.01204963 13.05238451 -22.21540786 13.23948796 -14 14 C-8.11935876 15.69194188 -5.41759824 18.58240176 -1 23 C-0.67 15.41 -0.34 7.82 0 0 Z M-158 22 C-158 26.62 -158 31.24 -158 36 C-156.081875 35.8453125 -156.081875 35.8453125 -154.125 35.6875 C-153.40570313 35.62949219 -152.68640625 35.57148438 -151.9453125 35.51171875 C-149.60480784 35.12606964 -149.60480784 35.12606964 -148 32 C-147.5 28.5 -147.5 28.5 -148 25 C-149.51894806 22.90235835 -149.51894806 22.90235835 -152 22 C-153.98 22 -155.96 22 -158 22 Z M-109 28 C-109.33 28.66 -109.66 29.32 -110 30 C-107.36 30 -104.72 30 -102 30 C-102.33 29.34 -102.66 28.68 -103 28 C-104.98 28 -106.96 28 -109 28 Z M-25 28 C-25 28.66 -25 29.32 -25 30 C-22.36 30 -19.72 30 -17 30 C-17.33 29.34 -17.66 28.68 -18 28 C-20.31 28 -22.62 28 -25 28 Z M132 28 C131.67 28.66 131.34 29.32 131 30 C133.64 30 136.28 30 139 30 C139 29.34 139 28.68 139 28 C136.69 28 134.38 28 132 28 Z M40 31 C39.32198966 33.90073181 39.32198966 33.90073181 39 37 C40.82703227 39.2491908 40.82703227 39.2491908 43.5 39.25 C46.17296773 39.2491908 46.17296773 39.2491908 48 37 C47.67801034 33.90073181 47.67801034 33.90073181 47 31 C44.69 31 42.38 31 40 31 Z M87 31 C86.3121764 33.35367713 86.3121764 33.35367713 86 36 C86.99 37.485 86.99 37.485 88 39 C90.5 39.41666667 90.5 39.41666667 93 39 C95.26839983 37.16734675 95.26839983 37.16734675 95.1875 34.4375 C95.27003323 32.05310277 95.27003323 32.05310277 94 31 C91.66702567 30.95907063 89.33294775 30.95758277 87 31 Z M-26 39 C-25.01 39.99 -24.02 40.98 -23 42 C-20.93747118 41.83094026 -18.87397437 41.63974444 -16.828125 41.328125 C-11.24807668 40.68071608 -5.60957269 40.9281847 0 41 C0 40.34 0 39.68 0 39 C-8.58 39 -17.16 39 -26 39 Z M131 39 C131.99 40.485 131.99 40.485 133 42 C134.34191406 41.89171875 134.34191406 41.89171875 135.7109375 41.78125 C142.82522148 41.23516424 149.86482853 40.85203561 157 41 C157 40.34 157 39.68 157 39 C148.42 39 139.84 39 131 39 Z " fill="#FDFDFD" transform="translate(536,107)"/>
<path d="M0 0 C6.93 0 13.86 0 21 0 C21 4.95 21 9.9 21 15 C21.66 14.67 22.32 14.34 23 14 C30.30834901 13.31413955 37.05891493 13.26913596 43 18 C48.60378666 24.16416533 49.30710462 29.57261219 49.20703125 37.76953125 C48.83108156 43.63576506 47.10480114 47.21619434 42.8125 51.3125 C37.68490403 55.33287923 32.73549677 56.30247985 26.3125 55.8125 C22.64362885 55.29200271 20.0143517 54.23645448 17 52 C16.34 52.99 15.68 53.98 15 55 C12.37302936 55.22137393 9.99106036 55.28162025 7.375 55.1875 C6.66859375 55.17396484 5.9621875 55.16042969 5.234375 55.14648438 C3.48925872 55.1111104 1.74453392 55.05730221 0 55 C0 51.7 0 48.4 0 45 C-0.845625 46.093125 -1.69125 47.18625 -2.5625 48.3125 C-7.00449233 53.42595629 -11.69723076 54.98326203 -18.3125 55.8125 C-25.17604428 56.26504138 -31.12044225 55.41261323 -37.3125 52.375 C-41.89188737 48.32809954 -44.52204351 43.91182597 -46 38 C-47.65 43.61 -49.3 49.22 -51 55 C-58.92 55 -66.84 55 -75 55 C-76.32 49.39 -77.64 43.78 -79 38 C-81.20324589 41.30486883 -81.74426937 43.76089514 -82.5625 47.625 C-83.89901823 53.89901823 -83.89901823 53.89901823 -85 55 C-86.70772358 55.08713831 -88.41898649 55.10700007 -90.12890625 55.09765625 C-91.68061523 55.09282227 -91.68061523 55.09282227 -93.26367188 55.08789062 C-94.35228516 55.07951172 -95.44089844 55.07113281 -96.5625 55.0625 C-98.2012207 55.05573242 -98.2012207 55.05573242 -99.87304688 55.04882812 C-102.58208495 55.03699826 -105.29101599 55.02051543 -108 55 C-111.97060938 46.22748893 -114.42571494 36.99755015 -117.00146484 27.74780273 C-117.75552227 25.04268936 -118.51973887 22.34059035 -119.28515625 19.63867188 C-119.76882771 17.91683469 -120.25192183 16.19483519 -120.734375 14.47265625 C-120.96243835 13.66643326 -121.19050171 12.86021027 -121.42547607 12.02955627 C-122.2825251 8.93606558 -123 6.22618552 -123 3 C-115.41 3 -107.82 3 -100 3 C-98.68 8.94 -97.36 14.88 -96 21 C-94.35 15.06 -92.7 9.12 -91 3 C-83.74 3 -76.48 3 -69 3 C-67.38462824 7.0384294 -66.31063984 10.60212074 -65.375 14.8125 C-64.98441406 16.55466797 -64.98441406 16.55466797 -64.5859375 18.33203125 C-64.39257812 19.21246094 -64.19921875 20.09289062 -64 21 C-63.70996094 19.80503906 -63.70996094 19.80503906 -63.4140625 18.5859375 C-63.15367187 17.52632812 -62.89328125 16.46671875 -62.625 15.375 C-62.36976563 14.33085938 -62.11453125 13.28671875 -61.8515625 12.2109375 C-61.02764916 9.1042551 -60.01638126 6.04914379 -59 3 C-51.74 3 -44.48 3 -37 3 C-37.69221683 9.22995144 -38.4027357 14.14336425 -40 20 C-39.46890625 19.65066406 -38.9378125 19.30132812 -38.390625 18.94140625 C-37.33101562 18.25884766 -37.33101562 18.25884766 -36.25 17.5625 C-35.20585937 16.88380859 -35.20585937 16.88380859 -34.140625 16.19140625 C-28.00330643 12.77556288 -19.56108257 13.02674911 -12.83984375 14.4609375 C-7.97900827 16.34326559 -5.08848872 19.4955811 -1 23 C-0.67 15.41 -0.34 7.82 0 0 Z M0 25 C1 27 1 27 1 27 Z M-25 28 C-25.33 28.66 -25.66 29.32 -26 30 C-23.36 30 -20.72 30 -18 30 C-18.33 29.34 -18.66 28.68 -19 28 C-20.98 28 -22.96 28 -25 28 Z M21 32 C20.83333333 35 20.83333333 35 21 38 C22.11836224 39.34404775 22.11836224 39.34404775 25 39.125 C27.88163776 39.34404775 27.88163776 39.34404775 29 38 C29.16666667 35 29.16666667 35 29 32 C27.88163776 30.65595225 27.88163776 30.65595225 25 30.875 C22.11836224 30.65595225 22.11836224 30.65595225 21 32 Z M-26 39 C-25.01 40.485 -25.01 40.485 -24 42 C-22.78376953 41.89171875 -22.78376953 41.89171875 -21.54296875 41.78125 C-14.33964043 41.17747859 -7.22747819 40.86964468 0 41 C0.33 40.34 0.66 39.68 1 39 C-7.91 39 -16.82 39 -26 39 Z " fill="#FDFDFD" transform="translate(299,107)"/>
<path d="M0 0 C2.5549383 1.68088046 3.67561527 2.93064895 4.56640625 5.8671875 C5.19598778 9.37958971 5.19092915 11.51206994 3.875 14.875 C1.59943735 17.453971 0.36529712 18.2521562 -3 19 C-9.64495114 19 -9.64495114 19 -12.625 16.80078125 C-14.91195159 14.32541604 -15.95671918 12.23564001 -16.5625 8.9375 C-15.85491998 5.24235989 -14.68699599 3.61437448 -12 1 C-7.84654263 -1.4696233 -4.6183793 -1.17558746 0 0 Z " fill="#FDFDFD" transform="translate(735,144)"/>
<path d="M0 0 C1.0859375 1.8125 1.0859375 1.8125 2 4 C1.26491838 5.60381445 0.5231246 7.20509717 -0.26171875 8.78515625 C-1.77684076 13.33052228 -1.2098518 18.26667602 -1 23 C-1.66 23 -2.32 23 -3 23 C-5.04101819 19.99850266 -5.1859698 17.75448392 -4.55859375 14.21484375 C-3.3404844 9.38499757 -1.65704184 4.69366736 0 0 Z " fill="#EEEEEE" transform="translate(257,126)"/>
<path d="M0 0 C1.32 0.66 2.64 1.32 4 2 C3.01 2 2.02 2 1 2 C1 6.29 1 10.58 1 15 C0.34 14.67 -0.32 14.34 -1 14 C-1.02685938 11.85423363 -1.04633088 9.70837355 -1.0625 7.5625 C-1.07410156 6.36753906 -1.08570313 5.17257813 -1.09765625 3.94140625 C-1 1 -1 1 0 0 Z " fill="#F0F0EF" transform="translate(622,160)"/>
<path d="M0 0 C2.23551759 3.35327639 2.17283528 3.90743657 1.625 7.6875 C1.51414062 8.49574219 1.40328125 9.30398437 1.2890625 10.13671875 C1.19367187 10.75160156 1.09828125 11.36648437 1 12 C-1.12157386 8.20129266 -1.24663053 5.35713932 -1 1 C-0.67 0.67 -0.34 0.34 0 0 Z " fill="#F1F1F1" transform="translate(556,145)"/>
<path d="M0 0 C0.33 0.66 0.66 1.32 1 2 C3.31 2 5.62 2 8 2 C8.33 2.66 8.66 3.32 9 4 C6.03 4 3.06 4 0 4 C-0.33 3.34 -0.66 2.68 -1 2 C-0.67 1.34 -0.34 0.68 0 0 Z " fill="#EEEEEE" transform="translate(510,135)"/>
<path d="" fill="#000000" transform="translate(0,0)"/>
</svg>
